:SAMPLES-PER-SECOND 30
:FULLY-SPECIFIED
:DEGREES
95
root  -55.0621 40.1244 -14.5396 14.1479 -30.171 2.55139
RightUpLeg  -31.6817 -16.8183 -6.14014
RightLeg  23.2352 3.27627 1.31927
RightFoot  -1.19262 -0.435316 4.80585
RightToes  -1.74624e-010 0 -3.6325e-017
Spine  43.4808 0.651145 0.983246
Spine1  1.79043 0.988208 -2.15508
HEad  -47.7396 -26.5902 26.4822
LeftShoulder1  9.37194 -15.212 -43.5698
LeftArm  -20.778 11.5071 -21.1821
LeftForeArm  27.0572 -9.39256 -1.55764
LeftHand  -0.244104 0.0205437 5.32207
RightShoulder  6.08935 10.176 38.449
RightArm  -27.8823 21.8872 6.10192
RightForeArm  98.5202 80.5288 65.0569
RightHand  0.107979 4.71236 0.947025
LeftUpLeg  -34.7744 -6.22831 8.44746
LeftLeg  20.9383 -6.94621 -2.60934
LeftFoot  3.82417 0.86841 -6.68935
LeftToes  8.00323e-011 -1.37366e-010 4.43692e-012
96
root  -54.9525 40.102 -14.3077 12.3779 -31.5722 2.75505
RightUpLeg  -29.8925 -16.3676 -7.18503
RightLeg  23.3014 4.31905 1.81533
RightFoot  -1.60032 -0.425019 4.85757
RightToes  -1.74624e-010 0 -3.6325e-017
Spine  42.7287 0.120239 0.906227
Spine1  1.00549 0.298582 -2.09343
HEad  -46.658 -26.5019 25.2203
LeftShoulder1  9.50995 -15.3178 -43.9838
LeftArm  -21.3187 6.27962 -23.1152
LeftForeArm  29.9505 -12.2591 -2.05779
LeftHand  -0.244104 0.0205437 5.32207
RightShoulder  6.46697 10.7639 39.2264
RightArm  -19.0537 24.9472 13.1376
RightForeArm  95.5802 79.8853 55.0931
RightHand  0.206785 5.46623 1.86384
LeftUpLeg  -34.8504 -5.3943 7.69046
LeftLeg  25.1978 -7.47141 -3.50561
LeftFoot  4.38246 1.01837 -7.56159
LeftToes  8.00323e-011 -1.37366e-010 4.43692e-012
97
root  -54.7594 40.0544 -14.0264 11.151 -32.9433 2.66032
RightUpLeg  -28.6908 -16.0679 -7.95898
RightLeg  23.574 5.18189 2.24916
RightFoot  -1.76327 -0.463914 5.38643
RightToes  -1.74624e-010 0 -3.6325e-017
Spine  41.4311 -0.498557 1.16923
Spine1  0.474324 -0.289011 -2.23661
HEad  -46.2758 -26.6899 24.2103
LeftShoulder1  9.48775 -15.3636 -43.7629
LeftArm  -22.0794 0.426587 -25.7482
LeftForeArm  31.7733 -15.6049 -2.39426
LeftHand  -0.244104 0.0205437 5.32207
RightShoulder  6.84082 11.3701 39.8611
RightArm  -10.8064 26.1128 21.4446
RightForeArm  92.0046 78.4675 43.8173
RightHand  0.389224 7.2031 3.22388
LeftUpLeg  -34.9517 -6.01835 7.81008
LeftLeg  28.0915 -9.17772 -4.93452
LeftFoot  3.65704 1.13691 -8.81216
LeftToes  8.00323e-011 -1.37366e-010 4.43692e-012
98
root  -54.5325 40.043 -13.6755 10.0982 -34.9892 2.5018
RightUpLeg  -27.5298 -14.8601 -8.8627
RightLeg  23.2231 5.93593 2.56425
RightFoot  -1.45876 -0.552549 6.26734
RightToes  -1.74624e-010 0 -3.6325e-017
Spine  39.9278 -0.704168 1.01505
Spine1  0.15709 -0.494053 -2.44552
HEad  -45.9049 -26.2509 23.3053
LeftShoulder1  9.41643 -15.5288 -43.0151
LeftArm  -22.6811 -5.1113 -28.7475
LeftForeArm  33.9202 -19.9751 -2.76347
LeftHand  -0.244104 0.0205437 5.32207
RightShoulder  7.10987 11.8554 40.1418
RightArm  -4.04131 25.1757 30.0438
RightForeArm  85.5287 75.9342 33.6471
RightHand  0.454455 8.12915 3.51437
LeftUpLeg  -33.6215 -7.99146 8.24374
LeftLeg  27.2032 -10.487 -5.47946
LeftFoot  0.886691 0.954526 -8.91137
LeftToes  8.00323e-011 -1.37366e-010 4.43692e-012
99
root  -54.2556 40.0519 -13.2466 9.14964 -37.6428 2.11989
RightUpLeg  -26.0886 -12.7766 -9.73566
RightLeg  22.1078 6.81821 2.82014
RightFoot  -0.933619 -0.629633 6.83711
RightToes  -1.74624e-010 0 -3.6325e-017
Spine  38.5882 -0.63657 0.322483
Spine1  -0.371683 -0.583247 -2.33293
HEad  -44.7557 -24.8227 22.2588
LeftShoulder1  9.28929 -15.6606 -42.0821
LeftArm  -22.5668 -9.56929 -31.3236
LeftForeArm  37.1645 -25.7905 -3.55892
LeftHand  -0.244104 0.0205437 5.32207
RightShoulder  7.31859 12.1885 40.4685
RightArm  1.1081 22.3765 37.5229
RightForeArm  79.3692 72.9087 26.5809
RightHand  0.395405 7.8326 3.08784
LeftUpLeg  -31.004 -10.4278 8.47873
LeftLeg  23.3962 -8.94754 -3.925
LeftFoot  -2.15874 0.581679 -7.05349
LeftToes  8.00323e-011 -1.37366e-010 4.43692e-012
100
root  -53.8622 40.0247 -12.7482 8.46306 -40.4057 1.32874
RightUpLeg  -24.5535 -10.8362 -10.33
RightLeg  20.6114 7.83113 3.03496
RightFoot  -0.325492 -0.703079 7.25591
RightToes  -1.74624e-010 0 -3.6325e-017
Spine  37.4395 -0.723911 -0.557087
Spine1  -1.07658 -0.966414 -1.70267
HEad  -43.0645 -22.9525 21.2135
LeftShoulder1  9.06935 -15.5773 -41.2025
LeftArm  -22.4062 -13.107 -32.8902
LeftForeArm  41.583 -32.8409 -4.92393
LeftHand  -0.244104 0.0205437 5.32207
RightShoulder  7.48777 12.318 41.1165
RightArm  4.69383 18.3247 42.8093
RightForeArm  77.0491 70.7485 22.9774
RightHand  0.404722 7.8113 3.17188
LeftUpLeg  -28.6615 -12.0807 8.17945
LeftLeg  20.7791 -4.9087 -1.70651
LeftFoot  -3.55736 0.287028 -3.94881
LeftToes  8.00323e-011 -1.37366e-010 4.43692e-012
101
root  -53.3415 39.9503 -12.2103 7.8344 -43.267 0.46994
RightUpLeg  -23.1639 -9.21038 -10.9389
RightLeg  18.9805 8.66708 3.08968
RightFoot  0.393654 -0.83788 8.16469
RightToes  -1.74624e-010 0 -3.6325e-017
Spine  36.3231 -0.827432 -1.75831
Spine1  -1.33656 -1.57448 -0.533433
HEad  -41.4492 -20.7945 20.4232
LeftShoulder1  8.80256 -15.3766 -40.3496
LeftArm  -22.9988 -16.7458 -33.5012
LeftForeArm  45.7841 -39.6822 -6.44074
LeftHand  -0.244104 0.0205437 5.32207
RightShoulder  7.59354 12.2886 41.8267
RightArm  6.9419 14.0328 45.4256
RightForeArm  76.1971 70.0212 22.0124
RightHand  0.437047 8.28243 3.32069
LeftUpLeg  -27.497 -11.5646 7.10148
LeftLeg  21.8395 -2.03525 -0.563798
LeftFoot  -3.86357 0.11692 -1.44098
LeftToes  8.00323e-011 -1.37366e-010 4.43692e-012
102
root  -52.7446 39.8496 -11.6506 6.87494 -46.69 -0.0889587
RightUpLeg  -21.9225 -7.12019 -11.8257
RightLeg  17.2962 9.75657 3.00428
RightFoot  1.14851 -1.0085 9.27439
RightToes  -1.74624e-010 0 -3.6325e-017
Spine  35.1784 -0.529244 -3.50837
Spine1  -0.773389 -2.03789 1.01533
HEad  -40.3247 -18.4174 20.044
LeftShoulder1  8.53679 -15.2091 -39.3996
LeftArm  -24.6976 -21.0666 -33.3055
LeftForeArm  48.2361 -44.7686 -7.82366
LeftHand  -0.244104 0.0205437 5.32207
RightShoulder  7.63975 12.2268 42.2768
RightArm  8.46153 10.5431 45.5053
RightForeArm  72.2169 69.8196 22.1908
RightHand  0.281735 8.1153 2.02745
LeftUpLeg  -26.6982 -8.62765 5.49479
LeftLeg  24.5975 -1.80582 -0.574597
LeftFoot  -4.27069 0.0514619 -0.416144
LeftToes  8.00323e-011 -1.37366e-010 4.43692e-012
